<svg width="390" height="64" viewBox="0 0 390 64" fill="none" xmlns="http://www.w3.org/2000/svg">
<mask id="path-1-inside-1_4006_3394" fill="white">
<path d="M0 0H390V64H0V0Z"/>
</mask>
<path d="M0 0H390V64H0V0Z" fill="#0B0C0D"/>
<path d="M390 64V63H0V64V65H390V64Z" fill="#232629" mask="url(#path-1-inside-1_4006_3394)"/>
<rect x="20" y="24" width="16" height="16" rx="2" fill="#FF5200"/>
<path d="M25.9 35.5V28.4H30.5V29.98H26.48L27.7 28.81V32.06L26.48 31.25H30.32V32.79H26.48L27.7 32V35.5H25.9Z" fill="#F5F6F7"/>
<path d="M45.332 38.5V25.72H54.152V28.024H46.556L48.068 26.458V32.308L46.556 31.12H53.828V33.388H46.556L48.068 32.2V38.5H45.332ZM55.9492 38.5V25.72H58.6852V38.5H55.9492ZM60.0539 38.5L64.3919 32.092L60.0899 25.72H63.2579L66.0479 30.022L68.7659 25.72H71.9519L67.6499 32.056L72.0059 38.5H68.8199L66.0119 34.126L63.2399 38.5H60.0539ZM73.3867 38.5V25.72H78.9847C79.9207 25.72 80.7307 25.876 81.4147 26.188C82.1107 26.5 82.6447 26.944 83.0167 27.52C83.3887 28.084 83.5747 28.756 83.5747 29.536C83.5747 30.124 83.4487 30.646 83.1967 31.102C82.9567 31.558 82.6207 31.93 82.1887 32.218C81.7687 32.506 81.2827 32.686 80.7307 32.758L80.6767 32.596C81.5287 32.596 82.1767 32.782 82.6207 33.154C83.0647 33.514 83.3167 34.072 83.3767 34.828L83.7007 38.5H80.9107L80.6767 35.26C80.6407 34.768 80.4847 34.408 80.2087 34.18C79.9447 33.94 79.4887 33.82 78.8407 33.82H76.1227V38.5H73.3867ZM76.1227 31.534H78.6787C79.3387 31.534 79.8487 31.384 80.2087 31.084C80.5807 30.772 80.7667 30.334 80.7667 29.77C80.7667 29.194 80.5807 28.762 80.2087 28.474C79.8367 28.174 79.2967 28.024 78.5887 28.024H76.1227V31.534ZM84.7717 38.5L89.3797 25.72H92.6197L97.2277 38.5H94.3837L93.4477 35.782H88.5337L87.5977 38.5H84.7717ZM89.3077 33.532H92.6917L90.9997 28.6L89.3077 33.532ZM98.6113 38.5V25.72H101.347V37.762L99.8353 36.196H107.233V38.5H98.6113Z" fill="#F5F6F7"/>
<rect x="268" y="17" width="70" height="30" rx="4" fill="#FF5200"/>
<path d="M284.53 36V29.279H282.132V28.19H288.116V29.279H285.718V36H284.53ZM290.605 36.132C290.033 36.132 289.538 36.0073 289.12 35.758C288.709 35.5087 288.39 35.153 288.163 34.691C287.943 34.229 287.833 33.69 287.833 33.074C287.833 32.458 287.943 31.9227 288.163 31.468C288.39 31.006 288.709 30.6503 289.12 30.401C289.531 30.1443 290.015 30.016 290.572 30.016C291.1 30.016 291.566 30.1407 291.969 30.39C292.372 30.632 292.684 30.984 292.904 31.446C293.131 31.908 293.245 32.4653 293.245 33.118V33.415H289.043C289.072 33.987 289.223 34.416 289.494 34.702C289.773 34.988 290.147 35.131 290.616 35.131C290.961 35.131 291.247 35.0503 291.474 34.889C291.701 34.7277 291.859 34.5113 291.947 34.24L293.157 34.317C293.003 34.8597 292.699 35.2997 292.244 35.637C291.797 35.967 291.25 36.132 290.605 36.132ZM289.043 32.535H292.013C291.976 32.0143 291.826 31.6293 291.562 31.38C291.305 31.1307 290.975 31.006 290.572 31.006C290.154 31.006 289.809 31.138 289.538 31.402C289.274 31.6587 289.109 32.0363 289.043 32.535ZM294.427 36V28.19H295.593V33.041L298.222 30.148H299.696L297.408 32.612L299.784 36H298.442L296.627 33.338L295.593 34.438V36H294.427ZM301.965 36C301.584 36 301.276 35.901 301.041 35.703C300.807 35.505 300.689 35.1897 300.689 34.757V28.19H301.855V34.647C301.855 34.779 301.888 34.878 301.954 34.944C302.028 35.01 302.13 35.043 302.262 35.043H302.724V36H301.965ZM303.708 36V30.148H304.874V36H303.708ZM303.686 29.301V28.135H304.896V29.301H303.686ZM306.762 36V29.774C306.762 29.29 306.897 28.905 307.169 28.619C307.44 28.333 307.865 28.19 308.445 28.19H309.479V29.147H308.599C308.371 29.147 308.203 29.2093 308.093 29.334C307.983 29.4513 307.928 29.62 307.928 29.84V36H306.762ZM305.948 31.171V30.225H309.391V31.171H305.948ZM312.771 36L315.587 28.19H317.094L319.91 36H318.645L317.93 33.965H314.74L314.036 36H312.771ZM315.114 32.887H317.567L316.335 29.323L315.114 32.887ZM321.999 36C321.618 36 321.31 35.901 321.075 35.703C320.841 35.505 320.723 35.1897 320.723 34.757V28.19H321.889V34.647C321.889 34.779 321.922 34.878 321.988 34.944C322.062 35.01 322.164 35.043 322.296 35.043H322.758V36H321.999Z" fill="#F5F6F7"/>
</svg>
