<svg width="1440" height="97" viewBox="0 0 1440 97" fill="none" xmlns="http://www.w3.org/2000/svg">
<rect width="1440" height="97" fill="#0B0C0D"/>
<mask id="path-1-inside-1_4006_1328" fill="white">
<path d="M80 40H1360V97H80V40Z"/>
</mask>
<path d="M1360 97V96H80V97V98H1360V97Z" fill="#232629" mask="url(#path-1-inside-1_4006_1328)"/>
<rect x="80.5" y="40.5" width="65" height="32" rx="3.5" fill="#FF5200"/>
<rect x="80.5" y="40.5" width="65" height="32" rx="3.5" stroke="#FF5200"/>
<path d="M98.951 61V53.239H96.143V51.77H103.436V53.239H100.641V61H98.951ZM106.028 61.156C105.326 61.156 104.767 60.9263 104.351 60.467C103.944 59.999 103.74 59.3533 103.74 58.53V54.058H105.404V58.114C105.404 58.6947 105.499 59.1237 105.69 59.401C105.889 59.6697 106.188 59.804 106.587 59.804C107.038 59.804 107.384 59.6567 107.627 59.362C107.878 59.0587 108.004 58.621 108.004 58.049V54.058H109.668V61H108.147L108.108 59.089L108.316 59.154C108.212 59.8127 107.965 60.311 107.575 60.649C107.185 60.987 106.669 61.156 106.028 61.156ZM104.546 53.148V51.679H106.171V53.148H104.546ZM107.159 53.148V51.679H108.784V53.148H107.159ZM111.497 61V54.058H113.005L113.057 55.761L112.901 55.683C112.979 55.3103 113.113 54.994 113.304 54.734C113.503 54.4653 113.742 54.2617 114.019 54.123C114.305 53.9757 114.617 53.902 114.955 53.902C115.544 53.902 116.021 54.071 116.385 54.409C116.749 54.7383 116.979 55.1933 117.074 55.774H116.853C116.931 55.3667 117.065 55.0287 117.256 54.76C117.447 54.4827 117.685 54.2703 117.971 54.123C118.266 53.9757 118.595 53.902 118.959 53.902C119.436 53.902 119.847 54.006 120.194 54.214C120.541 54.4133 120.805 54.708 120.987 55.098C121.178 55.488 121.273 55.969 121.273 56.541V61H119.609V56.97C119.609 56.398 119.509 55.969 119.31 55.683C119.119 55.397 118.825 55.254 118.426 55.254C118.157 55.254 117.928 55.3233 117.737 55.462C117.546 55.6007 117.399 55.8043 117.295 56.073C117.2 56.333 117.152 56.6493 117.152 57.022V61H115.605V57.022C115.605 56.45 115.518 56.0123 115.345 55.709C115.172 55.4057 114.873 55.254 114.448 55.254C114.179 55.254 113.95 55.3233 113.759 55.462C113.577 55.6007 113.43 55.8043 113.317 56.073C113.213 56.333 113.161 56.6493 113.161 57.022V61H111.497ZM125.211 61.156C124.509 61.156 123.95 60.9263 123.534 60.467C123.126 59.999 122.923 59.3533 122.923 58.53V54.058H124.587V58.114C124.587 58.6947 124.682 59.1237 124.873 59.401C125.072 59.6697 125.371 59.804 125.77 59.804C126.22 59.804 126.567 59.6567 126.81 59.362C127.061 59.0587 127.187 58.621 127.187 58.049V54.058H128.851V61H127.33L127.291 59.089L127.499 59.154C127.395 59.8127 127.148 60.311 126.758 60.649C126.368 60.987 125.852 61.156 125.211 61.156ZM123.729 53.148V51.679H125.354V53.148H123.729ZM126.342 53.148V51.679H127.967V53.148H126.342Z" fill="#F5F6F7"/>
<rect x="154.5" y="40.5" width="96" height="32" rx="3.5" fill="#131618"/>
<rect x="154.5" y="40.5" width="96" height="32" rx="3.5" stroke="#232629"/>
<path d="M174.017 61.208C172.951 61.208 172.128 60.961 171.547 60.467C170.975 59.973 170.667 59.323 170.624 58.517L172.067 58.439C172.119 58.9677 172.318 59.349 172.665 59.583C173.02 59.8083 173.471 59.921 174.017 59.921C174.381 59.921 174.715 59.8733 175.018 59.778C175.33 59.674 175.577 59.5093 175.759 59.284C175.95 59.05 176.045 58.7467 176.045 58.374C176.045 57.8193 175.859 57.412 175.486 57.152C175.113 56.8833 174.619 56.749 174.004 56.749H173.237V55.527H174.004C174.498 55.527 174.91 55.4273 175.239 55.228C175.568 55.0287 175.733 54.682 175.733 54.188C175.733 53.7547 175.594 53.4253 175.317 53.2C175.04 52.966 174.615 52.849 174.043 52.849C173.488 52.849 173.068 52.9573 172.782 53.174C172.496 53.3907 172.327 53.6853 172.275 54.058L170.832 53.98C170.919 53.252 171.235 52.667 171.781 52.225C172.336 51.783 173.09 51.562 174.043 51.562C174.702 51.562 175.265 51.666 175.733 51.874C176.201 52.0733 176.561 52.3637 176.812 52.745C177.063 53.1263 177.189 53.5727 177.189 54.084C177.189 54.6473 177.007 55.1067 176.643 55.462C176.288 55.8173 175.763 56.06 175.07 56.19V55.956C175.824 56.0513 176.418 56.32 176.851 56.762C177.284 57.1953 177.501 57.75 177.501 58.426C177.501 59.0067 177.354 59.5093 177.059 59.934C176.764 60.35 176.357 60.6663 175.837 60.883C175.317 61.0997 174.71 61.208 174.017 61.208ZM179.243 61V51.77H182.207C183.654 51.77 184.768 52.173 185.548 52.979C186.328 53.7763 186.718 54.916 186.718 56.398C186.718 57.8713 186.332 59.0067 185.561 59.804C184.798 60.6013 183.706 61 182.285 61H179.243ZM180.647 59.713H182.207C183.23 59.713 183.992 59.44 184.495 58.894C185.006 58.3393 185.262 57.5073 185.262 56.398C185.262 55.2713 185.006 54.435 184.495 53.889C183.992 53.3343 183.23 53.057 182.207 53.057H180.647V59.713ZM193.442 61V53.057H190.608V51.77H197.68V53.057H194.846V61H193.442ZM199.839 61.156C199.119 61.156 198.543 60.9913 198.11 60.662C197.685 60.3327 197.473 59.869 197.473 59.271C197.473 58.673 197.65 58.2093 198.006 57.88C198.37 57.542 198.929 57.2993 199.683 57.152L202.062 56.697C202.062 56.1597 201.936 55.761 201.685 55.501C201.433 55.2323 201.061 55.098 200.567 55.098C200.125 55.098 199.778 55.1977 199.527 55.397C199.275 55.5877 199.102 55.8737 199.007 56.255L197.59 56.164C197.72 55.4707 198.04 54.9247 198.552 54.526C199.072 54.1273 199.743 53.928 200.567 53.928C201.503 53.928 202.213 54.1793 202.699 54.682C203.193 55.176 203.44 55.8737 203.44 56.775V59.466C203.44 59.6307 203.466 59.7477 203.518 59.817C203.578 59.8777 203.674 59.908 203.804 59.908H204.051V61C204.007 61.0087 203.938 61.0173 203.843 61.026C203.747 61.0347 203.648 61.039 203.544 61.039C203.249 61.039 202.993 60.9913 202.777 60.896C202.569 60.8007 202.413 60.6447 202.309 60.428C202.205 60.2027 202.153 59.9037 202.153 59.531L202.296 59.596C202.226 59.8993 202.075 60.168 201.841 60.402C201.615 60.636 201.325 60.8223 200.97 60.961C200.623 61.091 200.246 61.156 199.839 61.156ZM200.06 60.064C200.476 60.064 200.831 59.986 201.126 59.83C201.42 59.6653 201.65 59.44 201.815 59.154C201.979 58.868 202.062 58.543 202.062 58.179V57.737L200.034 58.127C199.618 58.205 199.323 58.3307 199.15 58.504C198.985 58.6687 198.903 58.881 198.903 59.141C198.903 59.4357 199.002 59.6653 199.202 59.83C199.41 59.986 199.696 60.064 200.06 60.064ZM205.214 61V54.084H206.475L206.527 55.917L206.41 55.878C206.506 55.254 206.696 54.799 206.982 54.513C207.277 54.227 207.671 54.084 208.165 54.084H208.828V55.319H208.165C207.819 55.319 207.528 55.3753 207.294 55.488C207.06 55.6007 206.883 55.774 206.761 56.008C206.649 56.242 206.592 56.5453 206.592 56.918V61H205.214ZM211.772 61.156C211.053 61.156 210.477 60.9913 210.043 60.662C209.619 60.3327 209.406 59.869 209.406 59.271C209.406 58.673 209.584 58.2093 209.939 57.88C210.303 57.542 210.862 57.2993 211.616 57.152L213.995 56.697C213.995 56.1597 213.87 55.761 213.618 55.501C213.367 55.2323 212.994 55.098 212.5 55.098C212.058 55.098 211.712 55.1977 211.46 55.397C211.209 55.5877 211.036 55.8737 210.94 56.255L209.523 56.164C209.653 55.4707 209.974 54.9247 210.485 54.526C211.005 54.1273 211.677 53.928 212.5 53.928C213.436 53.928 214.147 54.1793 214.632 54.682C215.126 55.176 215.373 55.8737 215.373 56.775V59.466C215.373 59.6307 215.399 59.7477 215.451 59.817C215.512 59.8777 215.607 59.908 215.737 59.908H215.984V61C215.941 61.0087 215.872 61.0173 215.776 61.026C215.681 61.0347 215.581 61.039 215.477 61.039C215.183 61.039 214.927 60.9913 214.71 60.896C214.502 60.8007 214.346 60.6447 214.242 60.428C214.138 60.2027 214.086 59.9037 214.086 59.531L214.229 59.596C214.16 59.8993 214.008 60.168 213.774 60.402C213.549 60.636 213.259 60.8223 212.903 60.961C212.557 61.091 212.18 61.156 211.772 61.156ZM211.993 60.064C212.409 60.064 212.765 59.986 213.059 59.83C213.354 59.6653 213.584 59.44 213.748 59.154C213.913 58.868 213.995 58.543 213.995 58.179V57.737L211.967 58.127C211.551 58.205 211.257 58.3307 211.083 58.504C210.919 58.6687 210.836 58.881 210.836 59.141C210.836 59.4357 210.936 59.6653 211.135 59.83C211.343 59.986 211.629 60.064 211.993 60.064ZM217.148 61V54.084H218.409L218.448 55.8L218.292 55.748C218.37 55.3667 218.504 55.0417 218.695 54.773C218.894 54.5043 219.137 54.2963 219.423 54.149C219.709 54.0017 220.021 53.928 220.359 53.928C220.948 53.928 221.429 54.097 221.802 54.435C222.175 54.7643 222.409 55.2193 222.504 55.8H222.283C222.361 55.3927 222.491 55.0547 222.673 54.786C222.864 54.5087 223.106 54.2963 223.401 54.149C223.696 54.0017 224.029 53.928 224.402 53.928C224.887 53.928 225.299 54.032 225.637 54.24C225.984 54.4393 226.244 54.734 226.417 55.124C226.599 55.514 226.69 55.9907 226.69 56.554V61H225.312V56.892C225.312 56.294 225.204 55.8433 224.987 55.54C224.77 55.2367 224.441 55.085 223.999 55.085C223.713 55.085 223.462 55.1587 223.245 55.306C223.028 55.4533 222.859 55.6657 222.738 55.943C222.625 56.2203 222.569 56.554 222.569 56.944V61H221.256V56.944C221.256 56.3547 221.156 55.8997 220.957 55.579C220.766 55.2497 220.437 55.085 219.969 55.085C219.674 55.085 219.419 55.1587 219.202 55.306C218.994 55.4533 218.829 55.67 218.708 55.956C218.587 56.2333 218.526 56.5627 218.526 56.944V61H217.148ZM230.447 61.156C229.728 61.156 229.151 60.9913 228.718 60.662C228.293 60.3327 228.081 59.869 228.081 59.271C228.081 58.673 228.259 58.2093 228.614 57.88C228.978 57.542 229.537 57.2993 230.291 57.152L232.67 56.697C232.67 56.1597 232.544 55.761 232.293 55.501C232.042 55.2323 231.669 55.098 231.175 55.098C230.733 55.098 230.386 55.1977 230.135 55.397C229.884 55.5877 229.71 55.8737 229.615 56.255L228.198 56.164C228.328 55.4707 228.649 54.9247 229.16 54.526C229.68 54.1273 230.352 53.928 231.175 53.928C232.111 53.928 232.822 54.1793 233.307 54.682C233.801 55.176 234.048 55.8737 234.048 56.775V59.466C234.048 59.6307 234.074 59.7477 234.126 59.817C234.187 59.8777 234.282 59.908 234.412 59.908H234.659V61C234.616 61.0087 234.546 61.0173 234.451 61.026C234.356 61.0347 234.256 61.039 234.152 61.039C233.857 61.039 233.602 60.9913 233.385 60.896C233.177 60.8007 233.021 60.6447 232.917 60.428C232.813 60.2027 232.761 59.9037 232.761 59.531L232.904 59.596C232.835 59.8993 232.683 60.168 232.449 60.402C232.224 60.636 231.933 60.8223 231.578 60.961C231.231 61.091 230.854 61.156 230.447 61.156ZM230.668 60.064C231.084 60.064 231.439 59.986 231.734 59.83C232.029 59.6653 232.258 59.44 232.423 59.154C232.588 58.868 232.67 58.543 232.67 58.179V57.737L230.642 58.127C230.226 58.205 229.931 58.3307 229.758 58.504C229.593 58.6687 229.511 58.881 229.511 59.141C229.511 59.4357 229.611 59.6653 229.81 59.83C230.018 59.986 230.304 60.064 230.668 60.064Z" fill="#F5F6F7"/>
<rect x="259.5" y="40.5" width="129" height="32" rx="3.5" fill="#131618"/>
<rect x="259.5" y="40.5" width="129" height="32" rx="3.5" stroke="#232629"/>
<path d="M279.784 61.208C278.952 61.208 278.22 61.0173 277.587 60.636C276.954 60.246 276.46 59.6913 276.105 58.972C275.75 58.2527 275.572 57.3947 275.572 56.398C275.572 55.41 275.745 54.5563 276.092 53.837C276.447 53.109 276.941 52.55 277.574 52.16C278.207 51.7613 278.948 51.562 279.797 51.562C280.941 51.562 281.829 51.848 282.462 52.42C283.095 52.992 283.506 53.785 283.697 54.799L282.228 54.877C282.107 54.2443 281.847 53.7503 281.448 53.395C281.049 53.031 280.499 52.849 279.797 52.849C279.234 52.849 278.744 52.992 278.328 53.278C277.921 53.564 277.6 53.9713 277.366 54.5C277.141 55.0287 277.028 55.6613 277.028 56.398C277.028 57.1347 277.141 57.7673 277.366 58.296C277.6 58.8247 277.925 59.2277 278.341 59.505C278.757 59.7823 279.238 59.921 279.784 59.921C280.529 59.921 281.106 59.726 281.513 59.336C281.929 58.9373 282.189 58.3913 282.293 57.698L283.762 57.776C283.649 58.478 283.424 59.0847 283.086 59.596C282.748 60.1073 282.302 60.506 281.747 60.792C281.192 61.0693 280.538 61.208 279.784 61.208ZM284.185 61L287.513 51.77H289.294L292.622 61H291.127L290.282 58.595H286.512L285.68 61H284.185ZM286.954 57.321H289.853L288.397 53.109L286.954 57.321ZM293.726 61V51.77H296.69C298.138 51.77 299.251 52.173 300.031 52.979C300.811 53.7763 301.201 54.916 301.201 56.398C301.201 57.8713 300.816 59.0067 300.044 59.804C299.282 60.6013 298.19 61 296.768 61H293.726ZM295.13 59.713H296.69C297.713 59.713 298.476 59.44 298.978 58.894C299.49 58.3393 299.745 57.5073 299.745 56.398C299.745 55.2713 299.49 54.435 298.978 53.889C298.476 53.3343 297.713 53.057 296.69 53.057H295.13V59.713ZM306.054 61V51.77H307.978L310.721 59.349L313.464 51.77H315.388V61H313.984V54.24L311.501 60.987H309.941L307.458 54.24V61H306.054ZM320.196 61.156C319.537 61.156 318.961 61.0087 318.467 60.714C317.973 60.4193 317.592 59.999 317.323 59.453C317.054 58.907 316.92 58.27 316.92 57.542C316.92 56.8053 317.054 56.1683 317.323 55.631C317.592 55.0937 317.973 54.6777 318.467 54.383C318.961 54.0797 319.537 53.928 320.196 53.928C320.855 53.928 321.431 54.0797 321.925 54.383C322.419 54.6777 322.8 55.0937 323.069 55.631C323.338 56.1683 323.472 56.8053 323.472 57.542C323.472 58.27 323.338 58.907 323.069 59.453C322.8 59.999 322.419 60.4193 321.925 60.714C321.431 61.0087 320.855 61.156 320.196 61.156ZM320.196 59.96C320.785 59.96 321.24 59.7477 321.561 59.323C321.882 58.8897 322.042 58.296 322.042 57.542C322.042 56.788 321.882 56.1987 321.561 55.774C321.24 55.3407 320.785 55.124 320.196 55.124C319.615 55.124 319.16 55.3407 318.831 55.774C318.51 56.1987 318.35 56.788 318.35 57.542C318.35 58.296 318.51 58.8897 318.831 59.323C319.16 59.7477 319.615 59.96 320.196 59.96ZM327.322 61.156C326.732 61.156 326.217 61.0087 325.775 60.714C325.341 60.4193 325.008 60.0033 324.774 59.466C324.548 58.92 324.436 58.2787 324.436 57.542C324.436 56.8053 324.553 56.1683 324.787 55.631C325.021 55.085 325.354 54.6647 325.788 54.37C326.221 54.0753 326.732 53.928 327.322 53.928C327.798 53.928 328.223 54.0277 328.596 54.227C328.968 54.4263 329.25 54.7037 329.441 55.059V51.77H330.819V61H329.532L329.493 59.96C329.302 60.3327 329.012 60.6273 328.622 60.844C328.24 61.052 327.807 61.156 327.322 61.156ZM327.686 59.96C328.058 59.96 328.375 59.8647 328.635 59.674C328.895 59.4833 329.094 59.206 329.233 58.842C329.371 58.478 329.441 58.0447 329.441 57.542C329.441 57.022 329.371 56.5843 329.233 56.229C329.094 55.865 328.895 55.592 328.635 55.41C328.375 55.2193 328.058 55.124 327.686 55.124C327.131 55.124 326.689 55.3407 326.36 55.774C326.03 56.1987 325.866 56.788 325.866 57.542C325.866 58.2873 326.03 58.8767 326.36 59.31C326.689 59.7433 327.131 59.96 327.686 59.96ZM335.494 61.156C334.818 61.156 334.233 61.0087 333.739 60.714C333.254 60.4193 332.877 59.999 332.608 59.453C332.348 58.907 332.218 58.27 332.218 57.542C332.218 56.814 332.348 56.1813 332.608 55.644C332.877 55.098 333.254 54.6777 333.739 54.383C334.224 54.0797 334.796 53.928 335.455 53.928C336.079 53.928 336.629 54.0753 337.106 54.37C337.583 54.656 337.951 55.072 338.211 55.618C338.48 56.164 338.614 56.8227 338.614 57.594V57.945H333.648C333.683 58.621 333.86 59.128 334.181 59.466C334.51 59.804 334.952 59.973 335.507 59.973C335.914 59.973 336.252 59.8777 336.521 59.687C336.79 59.4963 336.976 59.2407 337.08 58.92L338.51 59.011C338.328 59.6523 337.968 60.1723 337.431 60.571C336.902 60.961 336.257 61.156 335.494 61.156ZM333.648 56.905H337.158C337.115 56.2897 336.937 55.8347 336.625 55.54C336.322 55.2453 335.932 55.098 335.455 55.098C334.961 55.098 334.554 55.254 334.233 55.566C333.921 55.8693 333.726 56.3157 333.648 56.905ZM341.582 61C341.131 61 340.767 60.883 340.49 60.649C340.212 60.415 340.074 60.0423 340.074 59.531V51.77H341.452V59.401C341.452 59.557 341.491 59.674 341.569 59.752C341.655 59.83 341.777 59.869 341.933 59.869H342.479V61H341.582ZM345.124 61C344.673 61 344.309 60.883 344.032 60.649C343.754 60.415 343.616 60.0423 343.616 59.531V51.77H344.994V59.401C344.994 59.557 345.033 59.674 345.111 59.752C345.197 59.83 345.319 59.869 345.475 59.869H346.021V61H345.124ZM350.043 61.156C349.367 61.156 348.782 61.0087 348.288 60.714C347.802 60.4193 347.425 59.999 347.157 59.453C346.897 58.907 346.767 58.27 346.767 57.542C346.767 56.814 346.897 56.1813 347.157 55.644C347.425 55.098 347.802 54.6777 348.288 54.383C348.773 54.0797 349.345 53.928 350.004 53.928C350.628 53.928 351.178 54.0753 351.655 54.37C352.131 54.656 352.5 55.072 352.76 55.618C353.028 56.164 353.163 56.8227 353.163 57.594V57.945H348.197C348.231 58.621 348.409 59.128 348.73 59.466C349.059 59.804 349.501 59.973 350.056 59.973C350.463 59.973 350.801 59.8777 351.07 59.687C351.338 59.4963 351.525 59.2407 351.629 58.92L353.059 59.011C352.877 59.6523 352.517 60.1723 351.98 60.571C351.451 60.961 350.805 61.156 350.043 61.156ZM348.197 56.905H351.707C351.663 56.2897 351.486 55.8347 351.174 55.54C350.87 55.2453 350.48 55.098 350.004 55.098C349.51 55.098 349.102 55.254 348.782 55.566C348.47 55.8693 348.275 56.3157 348.197 56.905ZM354.559 61V54.084H355.82L355.859 55.8L355.703 55.748C355.781 55.3667 355.915 55.0417 356.106 54.773C356.305 54.5043 356.548 54.2963 356.834 54.149C357.12 54.0017 357.432 53.928 357.77 53.928C358.359 53.928 358.84 54.097 359.213 54.435C359.586 54.7643 359.82 55.2193 359.915 55.8H359.694C359.772 55.3927 359.902 55.0547 360.084 54.786C360.275 54.5087 360.517 54.2963 360.812 54.149C361.107 54.0017 361.44 53.928 361.813 53.928C362.298 53.928 362.71 54.032 363.048 54.24C363.395 54.4393 363.655 54.734 363.828 55.124C364.01 55.514 364.101 55.9907 364.101 56.554V61H362.723V56.892C362.723 56.294 362.615 55.8433 362.398 55.54C362.181 55.2367 361.852 55.085 361.41 55.085C361.124 55.085 360.873 55.1587 360.656 55.306C360.439 55.4533 360.27 55.6657 360.149 55.943C360.036 56.2203 359.98 56.554 359.98 56.944V61H358.667V56.944C358.667 56.3547 358.567 55.8997 358.368 55.579C358.177 55.2497 357.848 55.085 357.38 55.085C357.085 55.085 356.83 55.1587 356.613 55.306C356.405 55.4533 356.24 55.67 356.119 55.956C355.998 56.2333 355.937 56.5627 355.937 56.944V61H354.559ZM368.756 61.156C368.08 61.156 367.495 61.0087 367.001 60.714C366.515 60.4193 366.138 59.999 365.87 59.453C365.61 58.907 365.48 58.27 365.48 57.542C365.48 56.814 365.61 56.1813 365.87 55.644C366.138 55.098 366.515 54.6777 367.001 54.383C367.486 54.0797 368.058 53.928 368.717 53.928C369.341 53.928 369.891 54.0753 370.368 54.37C370.844 54.656 371.213 55.072 371.473 55.618C371.741 56.164 371.876 56.8227 371.876 57.594V57.945H366.91C366.944 58.621 367.122 59.128 367.443 59.466C367.772 59.804 368.214 59.973 368.769 59.973C369.176 59.973 369.514 59.8777 369.783 59.687C370.051 59.4963 370.238 59.2407 370.342 58.92L371.772 59.011C371.59 59.6523 371.23 60.1723 370.693 60.571C370.164 60.961 369.518 61.156 368.756 61.156ZM366.91 56.905H370.42C370.376 56.2897 370.199 55.8347 369.887 55.54C369.583 55.2453 369.193 55.098 368.717 55.098C368.223 55.098 367.815 55.254 367.495 55.566C367.183 55.8693 366.988 56.3157 366.91 56.905Z" fill="#F5F6F7"/>
<rect x="397.5" y="40.5" width="86" height="32" rx="3.5" fill="#131618"/>
<rect x="397.5" y="40.5" width="86" height="32" rx="3.5" stroke="#232629"/>
<path d="M417.017 61.208C415.951 61.208 415.128 60.961 414.547 60.467C413.975 59.973 413.667 59.323 413.624 58.517L415.067 58.439C415.119 58.9677 415.318 59.349 415.665 59.583C416.02 59.8083 416.471 59.921 417.017 59.921C417.381 59.921 417.715 59.8733 418.018 59.778C418.33 59.674 418.577 59.5093 418.759 59.284C418.95 59.05 419.045 58.7467 419.045 58.374C419.045 57.8193 418.859 57.412 418.486 57.152C418.113 56.8833 417.619 56.749 417.004 56.749H416.237V55.527H417.004C417.498 55.527 417.91 55.4273 418.239 55.228C418.568 55.0287 418.733 54.682 418.733 54.188C418.733 53.7547 418.594 53.4253 418.317 53.2C418.04 52.966 417.615 52.849 417.043 52.849C416.488 52.849 416.068 52.9573 415.782 53.174C415.496 53.3907 415.327 53.6853 415.275 54.058L413.832 53.98C413.919 53.252 414.235 52.667 414.781 52.225C415.336 51.783 416.09 51.562 417.043 51.562C417.702 51.562 418.265 51.666 418.733 51.874C419.201 52.0733 419.561 52.3637 419.812 52.745C420.063 53.1263 420.189 53.5727 420.189 54.084C420.189 54.6473 420.007 55.1067 419.643 55.462C419.288 55.8173 418.763 56.06 418.07 56.19V55.956C418.824 56.0513 419.418 56.32 419.851 56.762C420.284 57.1953 420.501 57.75 420.501 58.426C420.501 59.0067 420.354 59.5093 420.059 59.934C419.764 60.35 419.357 60.6663 418.837 60.883C418.317 61.0997 417.71 61.208 417.017 61.208ZM422.243 61V51.77H425.207C426.654 51.77 427.768 52.173 428.548 52.979C429.328 53.7763 429.718 54.916 429.718 56.398C429.718 57.8713 429.332 59.0067 428.561 59.804C427.798 60.6013 426.706 61 425.285 61H422.243ZM423.647 59.713H425.207C426.23 59.713 426.992 59.44 427.495 58.894C428.006 58.3393 428.262 57.5073 428.262 56.398C428.262 55.2713 428.006 54.435 427.495 53.889C426.992 53.3343 426.23 53.057 425.207 53.057H423.647V59.713ZM434.57 61V51.77H437.885C438.994 51.77 439.831 51.9693 440.394 52.368C440.957 52.7667 441.239 53.3993 441.239 54.266C441.239 54.656 441.157 54.9983 440.992 55.293C440.827 55.5877 440.585 55.8217 440.264 55.995C439.952 56.1597 439.579 56.2463 439.146 56.255L439.133 56.203C439.922 56.2203 440.533 56.437 440.966 56.853C441.408 57.2603 441.629 57.7977 441.629 58.465C441.629 59.3057 441.347 59.9383 440.784 60.363C440.221 60.7877 439.419 61 438.379 61H434.57ZM435.974 59.739H438.34C438.921 59.739 439.371 59.622 439.692 59.388C440.021 59.1453 440.186 58.7943 440.186 58.335C440.186 57.8843 440.021 57.5333 439.692 57.282C439.371 57.0307 438.921 56.905 438.34 56.905H435.974V59.739ZM435.974 55.709H437.859C438.474 55.709 438.951 55.592 439.289 55.358C439.627 55.124 439.796 54.7947 439.796 54.37C439.796 53.9193 439.631 53.5857 439.302 53.369C438.981 53.1437 438.5 53.031 437.859 53.031H435.974V55.709ZM445.213 61.156C444.493 61.156 443.917 60.9913 443.484 60.662C443.059 60.3327 442.847 59.869 442.847 59.271C442.847 58.673 443.024 58.2093 443.38 57.88C443.744 57.542 444.303 57.2993 445.057 57.152L447.436 56.697C447.436 56.1597 447.31 55.761 447.059 55.501C446.807 55.2323 446.435 55.098 445.941 55.098C445.499 55.098 445.152 55.1977 444.901 55.397C444.649 55.5877 444.476 55.8737 444.381 56.255L442.964 56.164C443.094 55.4707 443.414 54.9247 443.926 54.526C444.446 54.1273 445.117 53.928 445.941 53.928C446.877 53.928 447.587 54.1793 448.073 54.682C448.567 55.176 448.814 55.8737 448.814 56.775V59.466C448.814 59.6307 448.84 59.7477 448.892 59.817C448.952 59.8777 449.048 59.908 449.178 59.908H449.425V61C449.381 61.0087 449.312 61.0173 449.217 61.026C449.121 61.0347 449.022 61.039 448.918 61.039C448.623 61.039 448.367 60.9913 448.151 60.896C447.943 60.8007 447.787 60.6447 447.683 60.428C447.579 60.2027 447.527 59.9037 447.527 59.531L447.67 59.596C447.6 59.8993 447.449 60.168 447.215 60.402C446.989 60.636 446.699 60.8223 446.344 60.961C445.997 61.091 445.62 61.156 445.213 61.156ZM445.434 60.064C445.85 60.064 446.205 59.986 446.5 59.83C446.794 59.6653 447.024 59.44 447.189 59.154C447.353 58.868 447.436 58.543 447.436 58.179V57.737L445.408 58.127C444.992 58.205 444.697 58.3307 444.524 58.504C444.359 58.6687 444.277 58.881 444.277 59.141C444.277 59.4357 444.376 59.6653 444.576 59.83C444.784 59.986 445.07 60.064 445.434 60.064ZM453.203 61.156C452.553 61.156 452.002 61.0563 451.552 60.857C451.11 60.6577 450.767 60.3847 450.525 60.038C450.282 59.6827 450.143 59.2753 450.109 58.816L451.526 58.751C451.595 59.1323 451.76 59.4357 452.02 59.661C452.28 59.8863 452.674 59.999 453.203 59.999C453.636 59.999 453.978 59.9297 454.23 59.791C454.481 59.6523 454.607 59.4313 454.607 59.128C454.607 58.9633 454.563 58.8247 454.477 58.712C454.399 58.5907 454.243 58.491 454.009 58.413C453.775 58.3263 453.428 58.244 452.969 58.166C452.284 58.036 451.747 57.8843 451.357 57.711C450.967 57.5377 450.689 57.3167 450.525 57.048C450.36 56.7793 450.278 56.4543 450.278 56.073C450.278 55.4403 450.512 54.9247 450.98 54.526C451.456 54.1273 452.141 53.928 453.034 53.928C453.632 53.928 454.134 54.032 454.542 54.24C454.949 54.4393 455.265 54.7123 455.491 55.059C455.725 55.397 455.872 55.7783 455.933 56.203L454.516 56.281C454.472 56.0383 454.386 55.8303 454.256 55.657C454.134 55.475 453.97 55.3363 453.762 55.241C453.554 55.137 453.307 55.085 453.021 55.085C452.579 55.085 452.249 55.1717 452.033 55.345C451.816 55.5183 451.708 55.7437 451.708 56.021C451.708 56.229 451.755 56.398 451.851 56.528C451.955 56.658 452.119 56.7663 452.345 56.853C452.57 56.931 452.869 57.0003 453.242 57.061C453.961 57.1823 454.524 57.334 454.932 57.516C455.339 57.6893 455.625 57.906 455.79 58.166C455.954 58.426 456.037 58.7423 456.037 59.115C456.037 59.5483 455.915 59.9167 455.673 60.22C455.43 60.5233 455.096 60.7573 454.672 60.922C454.247 61.078 453.757 61.156 453.203 61.156ZM457.431 61V51.77H458.809V57.503L461.916 54.084H463.658L460.954 56.996L463.762 61H462.176L460.031 57.854L458.809 59.154V61H457.431ZM464.705 61V54.084H466.083V61H464.705Z" fill="#F5F6F7"/>
<rect x="492.5" y="40.5" width="107" height="32" rx="3.5" fill="#131618"/>
<rect x="492.5" y="40.5" width="107" height="32" rx="3.5" stroke="#232629"/>
<path d="M509.118 61V51.77H512.797C513.456 51.77 514.023 51.8827 514.5 52.108C514.977 52.3333 515.345 52.654 515.605 53.07C515.865 53.486 515.995 53.98 515.995 54.552C515.995 54.968 515.9 55.3407 515.709 55.67C515.527 55.9993 515.28 56.2637 514.968 56.463C514.665 56.6537 514.34 56.762 513.993 56.788L513.928 56.671C514.509 56.671 514.959 56.8053 515.28 57.074C515.601 57.334 515.787 57.7457 515.839 58.309L516.086 61H514.669L514.448 58.491C514.422 58.1183 514.296 57.8453 514.071 57.672C513.846 57.49 513.477 57.399 512.966 57.399H510.522V61H509.118ZM510.522 56.112H512.823C513.352 56.112 513.768 55.982 514.071 55.722C514.383 55.4533 514.539 55.0763 514.539 54.591C514.539 54.097 514.383 53.72 514.071 53.46C513.759 53.1913 513.304 53.057 512.706 53.057H510.522V56.112ZM520.48 61.156C519.804 61.156 519.219 61.0087 518.725 60.714C518.24 60.4193 517.863 59.999 517.594 59.453C517.334 58.907 517.204 58.27 517.204 57.542C517.204 56.814 517.334 56.1813 517.594 55.644C517.863 55.098 518.24 54.6777 518.725 54.383C519.211 54.0797 519.783 53.928 520.441 53.928C521.065 53.928 521.616 54.0753 522.092 54.37C522.569 54.656 522.937 55.072 523.197 55.618C523.466 56.164 523.6 56.8227 523.6 57.594V57.945H518.634C518.669 58.621 518.847 59.128 519.167 59.466C519.497 59.804 519.939 59.973 520.493 59.973C520.901 59.973 521.239 59.8777 521.507 59.687C521.776 59.4963 521.962 59.2407 522.066 58.92L523.496 59.011C523.314 59.6523 522.955 60.1723 522.417 60.571C521.889 60.961 521.243 61.156 520.48 61.156ZM518.634 56.905H522.144C522.101 56.2897 521.923 55.8347 521.611 55.54C521.308 55.2453 520.918 55.098 520.441 55.098C519.947 55.098 519.54 55.254 519.219 55.566C518.907 55.8693 518.712 56.3157 518.634 56.905ZM527.661 61.156C527.011 61.156 526.461 61.0563 526.01 60.857C525.568 60.6577 525.226 60.3847 524.983 60.038C524.741 59.6827 524.602 59.2753 524.567 58.816L525.984 58.751C526.054 59.1323 526.218 59.4357 526.478 59.661C526.738 59.8863 527.133 59.999 527.661 59.999C528.095 59.999 528.437 59.9297 528.688 59.791C528.94 59.6523 529.065 59.4313 529.065 59.128C529.065 58.9633 529.022 58.8247 528.935 58.712C528.857 58.5907 528.701 58.491 528.467 58.413C528.233 58.3263 527.887 58.244 527.427 58.166C526.743 58.036 526.205 57.8843 525.815 57.711C525.425 57.5377 525.148 57.3167 524.983 57.048C524.819 56.7793 524.736 56.4543 524.736 56.073C524.736 55.4403 524.97 54.9247 525.438 54.526C525.915 54.1273 526.6 53.928 527.492 53.928C528.09 53.928 528.593 54.032 529 54.24C529.408 54.4393 529.724 54.7123 529.949 55.059C530.183 55.397 530.331 55.7783 530.391 56.203L528.974 56.281C528.931 56.0383 528.844 55.8303 528.714 55.657C528.593 55.475 528.428 55.3363 528.22 55.241C528.012 55.137 527.765 55.085 527.479 55.085C527.037 55.085 526.708 55.1717 526.491 55.345C526.275 55.5183 526.166 55.7437 526.166 56.021C526.166 56.229 526.214 56.398 526.309 56.528C526.413 56.658 526.578 56.7663 526.803 56.853C527.029 56.931 527.328 57.0003 527.7 57.061C528.42 57.1823 528.983 57.334 529.39 57.516C529.798 57.6893 530.084 57.906 530.248 58.166C530.413 58.426 530.495 58.7423 530.495 59.115C530.495 59.5483 530.374 59.9167 530.131 60.22C529.889 60.5233 529.555 60.7573 529.13 60.922C528.706 61.078 528.216 61.156 527.661 61.156ZM534.288 61C533.629 61 533.144 60.8483 532.832 60.545C532.52 60.2417 532.364 59.7693 532.364 59.128V52.459H533.742V59.024C533.742 59.3447 533.811 59.5657 533.95 59.687C534.089 59.8083 534.301 59.869 534.587 59.869H535.575V61H534.288ZM531.311 55.215V54.084H535.575V55.215H531.311ZM539.625 61.156C538.966 61.156 538.39 61.0087 537.896 60.714C537.402 60.4193 537.02 59.999 536.752 59.453C536.483 58.907 536.349 58.27 536.349 57.542C536.349 56.8053 536.483 56.1683 536.752 55.631C537.02 55.0937 537.402 54.6777 537.896 54.383C538.39 54.0797 538.966 53.928 539.625 53.928C540.283 53.928 540.86 54.0797 541.354 54.383C541.848 54.6777 542.229 55.0937 542.498 55.631C542.766 56.1683 542.901 56.8053 542.901 57.542C542.901 58.27 542.766 58.907 542.498 59.453C542.229 59.999 541.848 60.4193 541.354 60.714C540.86 61.0087 540.283 61.156 539.625 61.156ZM539.625 59.96C540.214 59.96 540.669 59.7477 540.99 59.323C541.31 58.8897 541.471 58.296 541.471 57.542C541.471 56.788 541.31 56.1987 540.99 55.774C540.669 55.3407 540.214 55.124 539.625 55.124C539.044 55.124 538.589 55.3407 538.26 55.774C537.939 56.1987 537.779 56.788 537.779 57.542C537.779 58.296 537.939 58.8897 538.26 59.323C538.589 59.7477 539.044 59.96 539.625 59.96ZM544.293 61V54.084H545.554L545.606 55.917L545.489 55.878C545.585 55.254 545.775 54.799 546.061 54.513C546.356 54.227 546.75 54.084 547.244 54.084H547.907V55.319H547.244C546.898 55.319 546.607 55.3753 546.373 55.488C546.139 55.6007 545.962 55.774 545.84 56.008C545.728 56.242 545.671 56.5453 545.671 56.918V61H544.293ZM550.851 61.156C550.132 61.156 549.556 60.9913 549.122 60.662C548.698 60.3327 548.485 59.869 548.485 59.271C548.485 58.673 548.663 58.2093 549.018 57.88C549.382 57.542 549.941 57.2993 550.695 57.152L553.074 56.697C553.074 56.1597 552.949 55.761 552.697 55.501C552.446 55.2323 552.073 55.098 551.579 55.098C551.137 55.098 550.791 55.1977 550.539 55.397C550.288 55.5877 550.115 55.8737 550.019 56.255L548.602 56.164C548.732 55.4707 549.053 54.9247 549.564 54.526C550.084 54.1273 550.756 53.928 551.579 53.928C552.515 53.928 553.226 54.1793 553.711 54.682C554.205 55.176 554.452 55.8737 554.452 56.775V59.466C554.452 59.6307 554.478 59.7477 554.53 59.817C554.591 59.8777 554.686 59.908 554.816 59.908H555.063V61C555.02 61.0087 554.951 61.0173 554.855 61.026C554.76 61.0347 554.66 61.039 554.556 61.039C554.262 61.039 554.006 60.9913 553.789 60.896C553.581 60.8007 553.425 60.6447 553.321 60.428C553.217 60.2027 553.165 59.9037 553.165 59.531L553.308 59.596C553.239 59.8993 553.087 60.168 552.853 60.402C552.628 60.636 552.338 60.8223 551.982 60.961C551.636 61.091 551.259 61.156 550.851 61.156ZM551.072 60.064C551.488 60.064 551.844 59.986 552.138 59.83C552.433 59.6653 552.663 59.44 552.827 59.154C552.992 58.868 553.074 58.543 553.074 58.179V57.737L551.046 58.127C550.63 58.205 550.336 58.3307 550.162 58.504C549.998 58.6687 549.915 58.881 549.915 59.141C549.915 59.4357 550.015 59.6653 550.214 59.83C550.422 59.986 550.708 60.064 551.072 60.064ZM558.841 61.156C558.191 61.156 557.641 61.0563 557.19 60.857C556.748 60.6577 556.406 60.3847 556.163 60.038C555.921 59.6827 555.782 59.2753 555.747 58.816L557.164 58.751C557.234 59.1323 557.398 59.4357 557.658 59.661C557.918 59.8863 558.313 59.999 558.841 59.999C559.275 59.999 559.617 59.9297 559.868 59.791C560.12 59.6523 560.245 59.4313 560.245 59.128C560.245 58.9633 560.202 58.8247 560.115 58.712C560.037 58.5907 559.881 58.491 559.647 58.413C559.413 58.3263 559.067 58.244 558.607 58.166C557.923 58.036 557.385 57.8843 556.995 57.711C556.605 57.5377 556.328 57.3167 556.163 57.048C555.999 56.7793 555.916 56.4543 555.916 56.073C555.916 55.4403 556.15 54.9247 556.618 54.526C557.095 54.1273 557.78 53.928 558.672 53.928C559.27 53.928 559.773 54.032 560.18 54.24C560.588 54.4393 560.904 54.7123 561.129 55.059C561.363 55.397 561.511 55.7783 561.571 56.203L560.154 56.281C560.111 56.0383 560.024 55.8303 559.894 55.657C559.773 55.475 559.608 55.3363 559.4 55.241C559.192 55.137 558.945 55.085 558.659 55.085C558.217 55.085 557.888 55.1717 557.671 55.345C557.455 55.5183 557.346 55.7437 557.346 56.021C557.346 56.229 557.394 56.398 557.489 56.528C557.593 56.658 557.758 56.7663 557.983 56.853C558.209 56.931 558.508 57.0003 558.88 57.061C559.6 57.1823 560.163 57.334 560.57 57.516C560.978 57.6893 561.264 57.906 561.428 58.166C561.593 58.426 561.675 58.7423 561.675 59.115C561.675 59.5483 561.554 59.9167 561.311 60.22C561.069 60.5233 560.735 60.7573 560.31 60.922C559.886 61.078 559.396 61.156 558.841 61.156ZM563.244 62.95V61.819H564.089C564.323 61.819 564.496 61.7843 564.609 61.715C564.722 61.6457 564.808 61.5287 564.869 61.364L565.09 60.792H564.661L562.165 54.084H563.621L565.519 59.518L567.326 54.084H568.795L566.039 61.806C565.9 62.2047 565.692 62.495 565.415 62.677C565.146 62.859 564.769 62.95 564.284 62.95H563.244ZM572.531 61.156C571.872 61.156 571.296 61.0087 570.802 60.714C570.308 60.4193 569.927 59.999 569.658 59.453C569.389 58.907 569.255 58.27 569.255 57.542C569.255 56.8053 569.389 56.1683 569.658 55.631C569.927 55.0937 570.308 54.6777 570.802 54.383C571.296 54.0797 571.872 53.928 572.531 53.928C573.19 53.928 573.766 54.0797 574.26 54.383C574.754 54.6777 575.135 55.0937 575.404 55.631C575.673 56.1683 575.807 56.8053 575.807 57.542C575.807 58.27 575.673 58.907 575.404 59.453C575.135 59.999 574.754 60.4193 574.26 60.714C573.766 61.0087 573.19 61.156 572.531 61.156ZM572.531 59.96C573.12 59.96 573.575 59.7477 573.896 59.323C574.217 58.8897 574.377 58.296 574.377 57.542C574.377 56.788 574.217 56.1987 573.896 55.774C573.575 55.3407 573.12 55.124 572.531 55.124C571.95 55.124 571.495 55.3407 571.166 55.774C570.845 56.1987 570.685 56.788 570.685 57.542C570.685 58.296 570.845 58.8897 571.166 59.323C571.495 59.7477 571.95 59.96 572.531 59.96ZM577.2 61V54.084H578.461L578.513 55.93L578.344 55.839C578.422 55.3883 578.569 55.0243 578.786 54.747C579.002 54.4697 579.267 54.266 579.579 54.136C579.891 53.9973 580.229 53.928 580.593 53.928C581.113 53.928 581.542 54.045 581.88 54.279C582.226 54.5043 582.486 54.8163 582.66 55.215C582.842 55.605 582.933 56.0513 582.933 56.554V61H581.555V56.97C581.555 56.5627 581.511 56.2203 581.425 55.943C581.338 55.6657 581.195 55.4533 580.996 55.306C580.796 55.1587 580.536 55.085 580.216 55.085C579.73 55.085 579.336 55.2453 579.033 55.566C578.729 55.8867 578.578 56.3547 578.578 56.97V61H577.2Z" fill="#F5F6F7"/>
<rect x="608.5" y="40.5" width="128" height="32" rx="3.5" fill="#131618"/>
<rect x="608.5" y="40.5" width="128" height="32" rx="3.5" stroke="#232629"/>
<path d="M625.118 61V51.77H628.082C629.529 51.77 630.643 52.173 631.423 52.979C632.203 53.7763 632.593 54.916 632.593 56.398C632.593 57.8713 632.207 59.0067 631.436 59.804C630.673 60.6013 629.581 61 628.16 61H625.118ZM626.522 59.713H628.082C629.105 59.713 629.867 59.44 630.37 58.894C630.881 58.3393 631.137 57.5073 631.137 56.398C631.137 55.2713 630.881 54.435 630.37 53.889C629.867 53.3343 629.105 53.057 628.082 53.057H626.522V59.713ZM633.951 61V54.084H635.329V61H633.951ZM633.925 53.083V51.705H635.355V53.083H633.925ZM636.047 62.95V61.819H636.671C636.905 61.819 637.087 61.767 637.217 61.663C637.355 61.559 637.425 61.3597 637.425 61.065V54.084H638.816V61.117C638.816 61.7757 638.664 62.2437 638.361 62.521C638.066 62.807 637.572 62.95 636.879 62.95H636.047ZM637.412 53.083V51.705H638.842V53.083H637.412ZM640.539 61V54.084H641.917V61H640.539ZM640.513 53.083V51.705H641.943V53.083H640.513ZM646.048 61C645.389 61 644.904 60.8483 644.592 60.545C644.28 60.2417 644.124 59.7693 644.124 59.128V52.459H645.502V59.024C645.502 59.3447 645.571 59.5657 645.71 59.687C645.849 59.8083 646.061 59.869 646.347 59.869H647.335V61H646.048ZM643.071 55.215V54.084H647.335V55.215H643.071ZM650.551 61.156C649.831 61.156 649.255 60.9913 648.822 60.662C648.397 60.3327 648.185 59.869 648.185 59.271C648.185 58.673 648.362 58.2093 648.718 57.88C649.082 57.542 649.641 57.2993 650.395 57.152L652.774 56.697C652.774 56.1597 652.648 55.761 652.397 55.501C652.145 55.2323 651.773 55.098 651.279 55.098C650.837 55.098 650.49 55.1977 650.239 55.397C649.987 55.5877 649.814 55.8737 649.719 56.255L648.302 56.164C648.432 55.4707 648.752 54.9247 649.264 54.526C649.784 54.1273 650.455 53.928 651.279 53.928C652.215 53.928 652.925 54.1793 653.411 54.682C653.905 55.176 654.152 55.8737 654.152 56.775V59.466C654.152 59.6307 654.178 59.7477 654.23 59.817C654.29 59.8777 654.386 59.908 654.516 59.908H654.763V61C654.719 61.0087 654.65 61.0173 654.555 61.026C654.459 61.0347 654.36 61.039 654.256 61.039C653.961 61.039 653.705 60.9913 653.489 60.896C653.281 60.8007 653.125 60.6447 653.021 60.428C652.917 60.2027 652.865 59.9037 652.865 59.531L653.008 59.596C652.938 59.8993 652.787 60.168 652.553 60.402C652.327 60.636 652.037 60.8223 651.682 60.961C651.335 61.091 650.958 61.156 650.551 61.156ZM650.772 60.064C651.188 60.064 651.543 59.986 651.838 59.83C652.132 59.6653 652.362 59.44 652.527 59.154C652.691 58.868 652.774 58.543 652.774 58.179V57.737L650.746 58.127C650.33 58.205 650.035 58.3307 649.862 58.504C649.697 58.6687 649.615 58.881 649.615 59.141C649.615 59.4357 649.714 59.6653 649.914 59.83C650.122 59.986 650.408 60.064 650.772 60.064ZM657.345 61C656.895 61 656.531 60.883 656.253 60.649C655.976 60.415 655.837 60.0423 655.837 59.531V51.77H657.215V59.401C657.215 59.557 657.254 59.674 657.332 59.752C657.419 59.83 657.54 59.869 657.696 59.869H658.242V61H657.345ZM666.476 61.208C665.644 61.208 664.912 61.0173 664.279 60.636C663.647 60.246 663.153 59.6913 662.797 58.972C662.442 58.2527 662.264 57.3947 662.264 56.398C662.264 55.41 662.438 54.5563 662.784 53.837C663.14 53.109 663.634 52.55 664.266 52.16C664.899 51.7613 665.64 51.562 666.489 51.562C667.633 51.562 668.522 51.848 669.154 52.42C669.787 52.992 670.199 53.785 670.389 54.799L668.92 54.877C668.799 54.2443 668.539 53.7503 668.14 53.395C667.742 53.031 667.191 52.849 666.489 52.849C665.926 52.849 665.436 52.992 665.02 53.278C664.613 53.564 664.292 53.9713 664.058 54.5C663.833 55.0287 663.72 55.6613 663.72 56.398C663.72 57.1347 663.833 57.7673 664.058 58.296C664.292 58.8247 664.617 59.2277 665.033 59.505C665.449 59.7823 665.93 59.921 666.476 59.921C667.222 59.921 667.798 59.726 668.205 59.336C668.621 58.9373 668.881 58.3913 668.985 57.698L670.454 57.776C670.342 58.478 670.116 59.0847 669.778 59.596C669.44 60.1073 668.994 60.506 668.439 60.792C667.885 61.0693 667.23 61.208 666.476 61.208ZM666.385 63.912C665.969 63.912 665.627 63.8123 665.358 63.613C665.098 63.4223 664.921 63.1753 664.825 62.872L665.553 62.586C665.623 62.768 665.722 62.898 665.852 62.976C665.982 63.0627 666.151 63.106 666.359 63.106C666.576 63.106 666.741 63.0627 666.853 62.976C666.975 62.8893 667.035 62.768 667.035 62.612C667.035 62.4473 666.975 62.313 666.853 62.209C666.741 62.105 666.489 62.053 666.099 62.053L665.67 61.624L666.151 60.87H667.074L666.658 61.442C667.092 61.468 667.408 61.5893 667.607 61.806C667.807 62.0313 667.906 62.3087 667.906 62.638C667.906 62.9067 667.837 63.132 667.698 63.314C667.568 63.5047 667.391 63.652 667.165 63.756C666.94 63.86 666.68 63.912 666.385 63.912ZM674.68 61.156C674.022 61.156 673.445 61.0087 672.951 60.714C672.457 60.4193 672.076 59.999 671.807 59.453C671.539 58.907 671.404 58.27 671.404 57.542C671.404 56.8053 671.539 56.1683 671.807 55.631C672.076 55.0937 672.457 54.6777 672.951 54.383C673.445 54.0797 674.022 53.928 674.68 53.928C675.339 53.928 675.915 54.0797 676.409 54.383C676.903 54.6777 677.285 55.0937 677.553 55.631C677.822 56.1683 677.956 56.8053 677.956 57.542C677.956 58.27 677.822 58.907 677.553 59.453C677.285 59.999 676.903 60.4193 676.409 60.714C675.915 61.0087 675.339 61.156 674.68 61.156ZM674.68 59.96C675.27 59.96 675.725 59.7477 676.045 59.323C676.366 58.8897 676.526 58.296 676.526 57.542C676.526 56.788 676.366 56.1987 676.045 55.774C675.725 55.3407 675.27 55.124 674.68 55.124C674.1 55.124 673.645 55.3407 673.315 55.774C672.995 56.1987 672.834 56.788 672.834 57.542C672.834 58.296 672.995 58.8897 673.315 59.323C673.645 59.7477 674.1 59.96 674.68 59.96ZM672.782 53.096V51.718H674.16V53.096H672.782ZM675.213 53.096V51.718H676.604V53.096H675.213ZM678.925 61V59.765L683.098 55.215H679.055V54.084H684.684V55.319L680.472 59.869H684.788V61H678.925ZM688.53 61.156C687.837 61.156 687.282 60.9263 686.866 60.467C686.459 59.999 686.255 59.3533 686.255 58.53V54.084H687.633V58.179C687.633 58.803 687.742 59.2623 687.958 59.557C688.175 59.8517 688.504 59.999 688.946 59.999C689.449 59.999 689.839 59.8387 690.116 59.518C690.402 59.1887 690.545 58.7293 690.545 58.14V54.084H691.923V61H690.636L690.61 59.193L690.805 59.271C690.684 59.8777 690.428 60.3457 690.038 60.675C689.648 60.9957 689.146 61.156 688.53 61.156ZM687.139 53.096V51.718H688.517V53.096H687.139ZM689.57 53.096V51.718H690.961V53.096H689.57ZM693.872 61V54.084H695.133L695.172 55.8L695.016 55.748C695.094 55.3667 695.229 55.0417 695.419 54.773C695.619 54.5043 695.861 54.2963 696.147 54.149C696.433 54.0017 696.745 53.928 697.083 53.928C697.673 53.928 698.154 54.097 698.526 54.435C698.899 54.7643 699.133 55.2193 699.228 55.8H699.007C699.085 55.3927 699.215 55.0547 699.397 54.786C699.588 54.5087 699.831 54.2963 700.125 54.149C700.42 54.0017 700.754 53.928 701.126 53.928C701.612 53.928 702.023 54.032 702.361 54.24C702.708 54.4393 702.968 54.734 703.141 55.124C703.323 55.514 703.414 55.9907 703.414 56.554V61H702.036V56.892C702.036 56.294 701.928 55.8433 701.711 55.54C701.495 55.2367 701.165 55.085 700.723 55.085C700.437 55.085 700.186 55.1587 699.969 55.306C699.753 55.4533 699.584 55.6657 699.462 55.943C699.35 56.2203 699.293 56.554 699.293 56.944V61H697.98V56.944C697.98 56.3547 697.881 55.8997 697.681 55.579C697.491 55.2497 697.161 55.085 696.693 55.085C696.399 55.085 696.143 55.1587 695.926 55.306C695.718 55.4533 695.554 55.67 695.432 55.956C695.311 56.2333 695.25 56.5627 695.25 56.944V61H693.872ZM706.717 61C706.267 61 705.903 60.883 705.625 60.649C705.348 60.415 705.209 60.0423 705.209 59.531V51.77H706.587V59.401C706.587 59.557 706.626 59.674 706.704 59.752C706.791 59.83 706.912 59.869 707.068 59.869H707.614V61H706.717ZM711.636 61.156C710.96 61.156 710.375 61.0087 709.881 60.714C709.396 60.4193 709.019 59.999 708.75 59.453C708.49 58.907 708.36 58.27 708.36 57.542C708.36 56.814 708.49 56.1813 708.75 55.644C709.019 55.098 709.396 54.6777 709.881 54.383C710.367 54.0797 710.939 53.928 711.597 53.928C712.221 53.928 712.772 54.0753 713.248 54.37C713.725 54.656 714.093 55.072 714.353 55.618C714.622 56.164 714.756 56.8227 714.756 57.594V57.945H709.79C709.825 58.621 710.003 59.128 710.323 59.466C710.653 59.804 711.095 59.973 711.649 59.973C712.057 59.973 712.395 59.8777 712.663 59.687C712.932 59.4963 713.118 59.2407 713.222 58.92L714.652 59.011C714.47 59.6523 714.111 60.1723 713.573 60.571C713.045 60.961 712.399 61.156 711.636 61.156ZM709.79 56.905H713.3C713.257 56.2897 713.079 55.8347 712.767 55.54C712.464 55.2453 712.074 55.098 711.597 55.098C711.103 55.098 710.696 55.254 710.375 55.566C710.063 55.8693 709.868 56.3157 709.79 56.905ZM716.153 61V54.084H717.414L717.466 55.917L717.349 55.878C717.444 55.254 717.635 54.799 717.921 54.513C718.215 54.227 718.61 54.084 719.104 54.084H719.767V55.319H719.104C718.757 55.319 718.467 55.3753 718.233 55.488C717.999 55.6007 717.821 55.774 717.7 56.008C717.587 56.242 717.531 56.5453 717.531 56.918V61H716.153Z" fill="#F5F6F7"/>
<rect x="745.5" y="40.5" width="88" height="32" rx="3.5" fill="#131618"/>
<rect x="745.5" y="40.5" width="88" height="32" rx="3.5" stroke="#232629"/>
<path d="M765.875 61.208C764.982 61.208 764.215 61.0173 763.574 60.636C762.933 60.246 762.439 59.6913 762.092 58.972C761.745 58.2527 761.572 57.3947 761.572 56.398C761.572 55.4013 761.745 54.5433 762.092 53.824C762.439 53.096 762.933 52.537 763.574 52.147C764.215 51.757 764.982 51.562 765.875 51.562C766.776 51.562 767.548 51.757 768.189 52.147C768.839 52.537 769.333 53.096 769.671 53.824C770.018 54.5433 770.191 55.4013 770.191 56.398C770.191 57.3947 770.018 58.2527 769.671 58.972C769.333 59.6913 768.839 60.246 768.189 60.636C767.548 61.0173 766.776 61.208 765.875 61.208ZM765.875 59.921C766.473 59.921 766.984 59.7823 767.409 59.505C767.842 59.2277 768.172 58.829 768.397 58.309C768.622 57.7803 768.735 57.1433 768.735 56.398C768.735 55.6527 768.622 55.0157 768.397 54.487C768.172 53.9583 767.842 53.5553 767.409 53.278C766.984 52.992 766.473 52.849 765.875 52.849C765.286 52.849 764.779 52.992 764.354 53.278C763.929 53.5553 763.6 53.9583 763.366 54.487C763.141 55.0157 763.028 55.6527 763.028 56.398C763.028 57.1433 763.141 57.7803 763.366 58.309C763.6 58.829 763.929 59.2277 764.354 59.505C764.779 59.7823 765.286 59.921 765.875 59.921ZM774.085 61C773.426 61 772.941 60.8483 772.629 60.545C772.317 60.2417 772.161 59.7693 772.161 59.128V52.459H773.539V59.024C773.539 59.3447 773.608 59.5657 773.747 59.687C773.886 59.8083 774.098 59.869 774.384 59.869H775.372V61H774.085ZM771.108 55.215V54.084H775.372V55.215H771.108ZM779.422 61.156C778.763 61.156 778.187 61.0087 777.693 60.714C777.199 60.4193 776.817 59.999 776.549 59.453C776.28 58.907 776.146 58.27 776.146 57.542C776.146 56.8053 776.28 56.1683 776.549 55.631C776.817 55.0937 777.199 54.6777 777.693 54.383C778.187 54.0797 778.763 53.928 779.422 53.928C780.08 53.928 780.657 54.0797 781.151 54.383C781.645 54.6777 782.026 55.0937 782.295 55.631C782.563 56.1683 782.698 56.8053 782.698 57.542C782.698 58.27 782.563 58.907 782.295 59.453C782.026 59.999 781.645 60.4193 781.151 60.714C780.657 61.0087 780.08 61.156 779.422 61.156ZM779.422 59.96C780.011 59.96 780.466 59.7477 780.787 59.323C781.107 58.8897 781.268 58.296 781.268 57.542C781.268 56.788 781.107 56.1987 780.787 55.774C780.466 55.3407 780.011 55.124 779.422 55.124C778.841 55.124 778.386 55.3407 778.057 55.774C777.736 56.1987 777.576 56.788 777.576 57.542C777.576 58.296 777.736 58.8897 778.057 59.323C778.386 59.7477 778.841 59.96 779.422 59.96ZM784.09 61V54.084H785.351L785.39 55.8L785.234 55.748C785.312 55.3667 785.447 55.0417 785.637 54.773C785.837 54.5043 786.079 54.2963 786.365 54.149C786.651 54.0017 786.963 53.928 787.301 53.928C787.891 53.928 788.372 54.097 788.744 54.435C789.117 54.7643 789.351 55.2193 789.446 55.8H789.225C789.303 55.3927 789.433 55.0547 789.615 54.786C789.806 54.5087 790.049 54.2963 790.343 54.149C790.638 54.0017 790.972 53.928 791.344 53.928C791.83 53.928 792.241 54.032 792.579 54.24C792.926 54.4393 793.186 54.734 793.359 55.124C793.541 55.514 793.632 55.9907 793.632 56.554V61H792.254V56.892C792.254 56.294 792.146 55.8433 791.929 55.54C791.713 55.2367 791.383 55.085 790.941 55.085C790.655 55.085 790.404 55.1587 790.187 55.306C789.971 55.4533 789.802 55.6657 789.68 55.943C789.568 56.2203 789.511 56.554 789.511 56.944V61H788.198V56.944C788.198 56.3547 788.099 55.8997 787.899 55.579C787.709 55.2497 787.379 55.085 786.911 55.085C786.617 55.085 786.361 55.1587 786.144 55.306C785.936 55.4533 785.772 55.67 785.65 55.956C785.529 56.2333 785.468 56.5627 785.468 56.944V61H784.09ZM798.287 61.156C797.628 61.156 797.052 61.0087 796.558 60.714C796.064 60.4193 795.683 59.999 795.414 59.453C795.145 58.907 795.011 58.27 795.011 57.542C795.011 56.8053 795.145 56.1683 795.414 55.631C795.683 55.0937 796.064 54.6777 796.558 54.383C797.052 54.0797 797.628 53.928 798.287 53.928C798.946 53.928 799.522 54.0797 800.016 54.383C800.51 54.6777 800.891 55.0937 801.16 55.631C801.429 56.1683 801.563 56.8053 801.563 57.542C801.563 58.27 801.429 58.907 801.16 59.453C800.891 59.999 800.51 60.4193 800.016 60.714C799.522 61.0087 798.946 61.156 798.287 61.156ZM798.287 59.96C798.876 59.96 799.331 59.7477 799.652 59.323C799.973 58.8897 800.133 58.296 800.133 57.542C800.133 56.788 799.973 56.1987 799.652 55.774C799.331 55.3407 798.876 55.124 798.287 55.124C797.706 55.124 797.251 55.3407 796.922 55.774C796.601 56.1987 796.441 56.788 796.441 57.542C796.441 58.296 796.601 58.8897 796.922 59.323C797.251 59.7477 797.706 59.96 798.287 59.96ZM805.354 61C804.695 61 804.21 60.8483 803.898 60.545C803.586 60.2417 803.43 59.7693 803.43 59.128V52.459H804.808V59.024C804.808 59.3447 804.877 59.5657 805.016 59.687C805.154 59.8083 805.367 59.869 805.653 59.869H806.641V61H805.354ZM802.377 55.215V54.084H806.641V55.215H802.377ZM807.957 61V54.084H809.335V61H807.957ZM807.931 53.083V51.705H809.361V53.083H807.931ZM812.99 61L810.468 54.084H811.937L813.822 59.596L815.707 54.084H817.189L814.654 61H812.99Z" fill="#F5F6F7"/>
<g opacity="0.6">
<line x1="1142" y1="56" x2="1154" y2="56" stroke="#FF5200"/>
<line x1="1142.5" y1="50.5" x2="1142.5" y2="62.5" stroke="#FF5200"/>
</g>
<path d="M1165.28 60.676C1164.73 60.676 1164.24 60.5257 1163.8 60.225C1163.38 59.917 1163.04 59.4623 1162.79 58.861C1162.54 58.2523 1162.42 57.5007 1162.42 56.606C1162.42 55.7627 1162.53 55.0367 1162.76 54.428C1162.99 53.8193 1163.33 53.35 1163.76 53.02C1164.19 52.6827 1164.71 52.514 1165.32 52.514C1165.8 52.514 1166.22 52.6203 1166.59 52.833C1166.96 53.0457 1167.27 53.3427 1167.52 53.724C1167.77 54.098 1167.95 54.5307 1168.06 55.022L1167.07 55.088C1166.95 54.604 1166.74 54.208 1166.44 53.9C1166.16 53.592 1165.78 53.438 1165.32 53.438C1164.92 53.438 1164.57 53.5627 1164.29 53.812C1164 54.054 1163.78 54.4133 1163.63 54.89C1163.48 55.3593 1163.41 55.9313 1163.41 56.606C1163.41 57.2733 1163.49 57.8417 1163.64 58.311C1163.79 58.7803 1164.01 59.1397 1164.3 59.389C1164.59 59.631 1164.95 59.752 1165.37 59.752C1165.74 59.752 1166.06 59.6567 1166.32 59.466C1166.59 59.268 1166.81 58.9967 1166.96 58.652C1167.12 58.3 1167.2 57.9003 1167.21 57.453H1165.34V56.551H1168.09V60.5H1167.21L1167.17 58.652L1167.43 58.74C1167.33 59.114 1167.19 59.4477 1167.01 59.741C1166.83 60.0343 1166.6 60.2653 1166.31 60.434C1166.03 60.5953 1165.69 60.676 1165.28 60.676ZM1169.37 60.5V52.69H1171.74C1172.56 52.69 1173.21 52.899 1173.69 53.317C1174.17 53.7277 1174.4 54.296 1174.4 55.022C1174.4 55.3887 1174.32 55.715 1174.15 56.001C1173.98 56.2797 1173.77 56.4997 1173.5 56.661C1173.24 56.8223 1172.97 56.914 1172.69 56.936L1172.64 56.804C1173.16 56.8333 1173.55 56.958 1173.81 57.178C1174.07 57.398 1174.23 57.7573 1174.27 58.256L1174.47 60.5H1173.52L1173.34 58.377C1173.31 58.135 1173.26 57.9407 1173.16 57.794C1173.07 57.64 1172.93 57.53 1172.73 57.464C1172.54 57.3907 1172.28 57.354 1171.94 57.354H1170.31V60.5H1169.37ZM1170.31 56.43H1171.74C1172.28 56.43 1172.7 56.309 1172.98 56.067C1173.27 55.8177 1173.41 55.4693 1173.41 55.022C1173.41 54.5673 1173.27 54.219 1172.98 53.977C1172.7 53.735 1172.28 53.614 1171.74 53.614H1170.31V56.43ZM1176.07 60.5V59.576H1178.02V53.614H1176.07V52.69H1180.91V53.614H1178.96V59.576H1180.91V60.5H1176.07ZM1182.78 60.5V52.69H1184.63C1185.3 52.69 1185.89 52.844 1186.39 53.152C1186.89 53.4527 1187.28 53.8963 1187.55 54.483C1187.83 55.0623 1187.97 55.77 1187.97 56.606C1187.97 57.442 1187.83 58.1497 1187.55 58.729C1187.28 59.3083 1186.89 59.7483 1186.39 60.049C1185.89 60.3497 1185.3 60.5 1184.63 60.5H1182.78ZM1183.72 59.576H1184.57C1185.33 59.576 1185.92 59.3303 1186.34 58.839C1186.77 58.3403 1186.98 57.596 1186.98 56.606C1186.98 55.616 1186.77 54.8717 1186.34 54.373C1185.92 53.867 1185.33 53.614 1184.57 53.614H1183.72V59.576ZM1189.26 61.358V60.5H1194.1V61.358H1189.26ZM1197.66 60.5L1195.31 52.69H1196.32L1198.41 59.884H1198.15L1200.24 52.69H1201.25L1198.89 60.5H1197.66ZM1202.45 60.5V59.576H1204.4V53.614H1202.45V52.69H1207.29V53.614H1205.35V59.576H1207.29V60.5H1202.45ZM1209.16 60.5V52.69H1213.91V53.614H1210.11V56.133H1213.78V57.035H1210.11V59.576H1214V60.5H1209.16ZM1215.95 60.5L1215.1 52.69H1216.09L1216.81 59.95H1216.7L1217.56 53.57H1218.57L1219.43 59.95H1219.32L1220.05 52.69H1221.04L1220.18 60.5H1218.75L1217.93 54.34H1218.2L1217.38 60.5H1215.95ZM1223.98 60.5V59.158H1225.34V60.5H1223.98ZM1223.98 56.254V54.912H1225.34V56.254H1223.98ZM1234.84 60.5L1237.21 52.69H1238.49L1240.87 60.5H1239.85L1237.85 53.548L1235.85 60.5H1234.84ZM1236.04 58.278L1236.37 57.354H1239.34L1239.67 58.278H1236.04ZM1244.47 60.676C1243.85 60.676 1243.32 60.511 1242.89 60.181C1242.45 59.851 1242.12 59.3817 1241.9 58.773C1241.68 58.1643 1241.57 57.442 1241.57 56.606C1241.57 55.7627 1241.68 55.0367 1241.9 54.428C1242.12 53.8193 1242.45 53.35 1242.89 53.02C1243.32 52.6827 1243.85 52.514 1244.47 52.514C1245.16 52.514 1245.75 52.7413 1246.23 53.196C1246.71 53.6433 1247.04 54.2703 1247.2 55.077L1246.19 55.143C1246.06 54.5783 1245.85 54.153 1245.54 53.867C1245.24 53.581 1244.88 53.438 1244.47 53.438C1244.05 53.438 1243.7 53.5627 1243.41 53.812C1243.14 54.054 1242.92 54.4133 1242.78 54.89C1242.63 55.3593 1242.56 55.9313 1242.56 56.606C1242.56 57.2733 1242.63 57.8417 1242.78 58.311C1242.92 58.7803 1243.14 59.1397 1243.41 59.389C1243.7 59.631 1244.05 59.752 1244.47 59.752C1244.93 59.752 1245.31 59.5943 1245.63 59.279C1245.94 58.9637 1246.15 58.4943 1246.26 57.871L1247.26 57.926C1247.13 58.784 1246.81 59.4587 1246.32 59.95C1245.83 60.434 1245.21 60.676 1244.47 60.676ZM1250.57 60.5V53.614H1248.18V52.69H1253.9V53.614H1251.52V60.5H1250.57ZM1255.22 60.5V59.576H1257.17V53.614H1255.22V52.69H1260.06V53.614H1258.11V59.576H1260.06V60.5H1255.22ZM1263.62 60.5L1261.27 52.69H1262.28L1264.37 59.884H1264.1L1266.19 52.69H1267.21L1264.85 60.5H1263.62ZM1268.52 60.5V52.69H1273.27V53.614H1269.47V56.133H1273.14V57.035H1269.47V59.576H1273.36V60.5H1268.52ZM1285.34 61.71H1282.7V52.25H1285.34V53.02H1283.58V60.94H1285.34V61.71ZM1290.64 60.676C1290.05 60.676 1289.55 60.544 1289.13 60.28C1288.72 60.0087 1288.41 59.6127 1288.19 59.092C1287.97 58.5713 1287.87 57.9407 1287.87 57.2C1287.87 56.5547 1287.92 55.9497 1288.02 55.385C1288.13 54.8203 1288.3 54.3253 1288.54 53.9C1288.78 53.4673 1289.1 53.13 1289.49 52.888C1289.88 52.6387 1290.37 52.514 1290.95 52.514C1291.41 52.514 1291.8 52.591 1292.13 52.745C1292.45 52.899 1292.71 53.1153 1292.91 53.394C1293.11 53.6727 1293.27 53.9953 1293.37 54.362L1292.38 54.45C1292.29 54.142 1292.14 53.8963 1291.92 53.713C1291.7 53.5297 1291.38 53.438 1290.95 53.438C1290.52 53.438 1290.15 53.5627 1289.84 53.812C1289.53 54.054 1289.29 54.4207 1289.11 54.912C1288.94 55.4033 1288.85 56.0193 1288.84 56.76L1288.64 56.716C1288.72 56.452 1288.86 56.21 1289.06 55.99C1289.26 55.7627 1289.51 55.583 1289.8 55.451C1290.11 55.3117 1290.44 55.242 1290.82 55.242C1291.33 55.242 1291.78 55.352 1292.16 55.572C1292.54 55.792 1292.84 56.1037 1293.05 56.507C1293.26 56.903 1293.37 57.3687 1293.37 57.904C1293.37 58.476 1293.25 58.971 1293.02 59.389C1292.79 59.7997 1292.47 60.1187 1292.06 60.346C1291.66 60.566 1291.18 60.676 1290.64 60.676ZM1290.66 59.752C1291.18 59.752 1291.59 59.5907 1291.91 59.268C1292.22 58.938 1292.38 58.4833 1292.38 57.904C1292.38 57.3613 1292.23 56.9323 1291.93 56.617C1291.63 56.3017 1291.24 56.144 1290.75 56.144C1290.4 56.144 1290.08 56.2173 1289.8 56.364C1289.53 56.5033 1289.31 56.705 1289.14 56.969C1288.98 57.233 1288.9 57.5447 1288.9 57.904C1288.9 58.2633 1288.97 58.5823 1289.11 58.861C1289.26 59.1397 1289.46 59.3597 1289.73 59.521C1289.99 59.675 1290.3 59.752 1290.66 59.752ZM1294.79 61.358V60.5H1299.63V61.358H1294.79ZM1301.5 60.5V52.69H1303.88C1304.42 52.69 1304.89 52.7853 1305.29 52.976C1305.7 53.1667 1306.01 53.4417 1306.23 53.801C1306.45 54.153 1306.56 54.5783 1306.56 55.077C1306.56 55.5757 1306.45 56.0047 1306.23 56.364C1306.01 56.716 1305.7 56.9873 1305.29 57.178C1304.89 57.3687 1304.42 57.464 1303.88 57.464H1302.45V60.5H1301.5ZM1302.45 56.54H1303.77C1304.38 56.54 1304.84 56.4153 1305.13 56.166C1305.42 55.9093 1305.57 55.5463 1305.57 55.077C1305.57 54.6003 1305.42 54.2373 1305.13 53.988C1304.84 53.7387 1304.38 53.614 1303.77 53.614H1302.45V56.54ZM1307.88 60.5V52.69H1310.25C1311.07 52.69 1311.72 52.899 1312.2 53.317C1312.68 53.7277 1312.91 54.296 1312.91 55.022C1312.91 55.3887 1312.83 55.715 1312.66 56.001C1312.49 56.2797 1312.28 56.4997 1312.01 56.661C1311.75 56.8223 1311.48 56.914 1311.2 56.936L1311.15 56.804C1311.67 56.8333 1312.06 56.958 1312.32 57.178C1312.58 57.398 1312.74 57.7573 1312.78 58.256L1312.98 60.5H1312.03L1311.85 58.377C1311.82 58.135 1311.77 57.9407 1311.67 57.794C1311.58 57.64 1311.44 57.53 1311.24 57.464C1311.05 57.3907 1310.79 57.354 1310.45 57.354H1308.82V60.5H1307.88ZM1308.82 56.43H1310.25C1310.79 56.43 1311.21 56.309 1311.49 56.067C1311.78 55.8177 1311.92 55.4693 1311.92 55.022C1311.92 54.5673 1311.78 54.219 1311.49 53.977C1311.21 53.735 1310.79 53.614 1310.25 53.614H1308.82V56.43ZM1317 60.676C1316.39 60.676 1315.86 60.5183 1315.43 60.203C1315 59.8877 1314.68 59.4257 1314.45 58.817C1314.23 58.2083 1314.12 57.4713 1314.12 56.606C1314.12 55.726 1314.23 54.9817 1314.45 54.373C1314.68 53.7643 1315 53.3023 1315.43 52.987C1315.86 52.6717 1316.39 52.514 1317 52.514C1317.62 52.514 1318.14 52.6717 1318.56 52.987C1319 53.3023 1319.32 53.7643 1319.54 54.373C1319.77 54.9817 1319.88 55.726 1319.88 56.606C1319.88 57.4713 1319.77 58.2083 1319.54 58.817C1319.32 59.4257 1319 59.8877 1318.56 60.203C1318.14 60.5183 1317.62 60.676 1317 60.676ZM1317 59.752C1317.4 59.752 1317.75 59.6347 1318.02 59.4C1318.31 59.158 1318.53 58.8023 1318.67 58.333C1318.82 57.8637 1318.89 57.288 1318.89 56.606C1318.89 55.924 1318.82 55.3483 1318.67 54.879C1318.53 54.4023 1318.31 54.043 1318.02 53.801C1317.75 53.559 1317.4 53.438 1317 53.438C1316.6 53.438 1316.25 53.559 1315.97 53.801C1315.69 54.043 1315.48 54.4023 1315.33 54.879C1315.18 55.3483 1315.11 55.924 1315.11 56.606C1315.11 57.288 1315.18 57.8637 1315.33 58.333C1315.48 58.8023 1315.69 59.158 1315.97 59.4C1316.25 59.6347 1316.6 59.752 1317 59.752ZM1323.32 60.676C1322.81 60.676 1322.36 60.566 1321.98 60.346C1321.6 60.126 1321.3 59.8143 1321.08 59.411C1320.87 59.0003 1320.75 58.52 1320.74 57.97L1321.66 57.882C1321.68 58.5127 1321.83 58.982 1322.1 59.29C1322.37 59.598 1322.78 59.752 1323.32 59.752C1323.86 59.752 1324.27 59.598 1324.54 59.29C1324.82 58.9747 1324.96 58.5053 1324.96 57.882V52.69H1325.91V57.882C1325.91 58.7473 1325.68 59.4293 1325.21 59.928C1324.75 60.4267 1324.12 60.676 1323.32 60.676ZM1327.88 60.5V52.69H1332.63V53.614H1328.83V56.133H1332.5V57.035H1328.83V59.576H1332.72V60.5H1327.88ZM1336.81 60.676C1336.19 60.676 1335.66 60.511 1335.23 60.181C1334.79 59.851 1334.46 59.3817 1334.24 58.773C1334.02 58.1643 1333.91 57.442 1333.91 56.606C1333.91 55.7627 1334.02 55.0367 1334.24 54.428C1334.46 53.8193 1334.79 53.35 1335.23 53.02C1335.66 52.6827 1336.19 52.514 1336.81 52.514C1337.5 52.514 1338.09 52.7413 1338.57 53.196C1339.05 53.6433 1339.38 54.2703 1339.54 55.077L1338.53 55.143C1338.4 54.5783 1338.19 54.153 1337.88 53.867C1337.58 53.581 1337.22 53.438 1336.81 53.438C1336.39 53.438 1336.04 53.5627 1335.75 53.812C1335.48 54.054 1335.26 54.4133 1335.12 54.89C1334.97 55.3593 1334.9 55.9313 1334.9 56.606C1334.9 57.2733 1334.97 57.8417 1335.12 58.311C1335.26 58.7803 1335.48 59.1397 1335.75 59.389C1336.04 59.631 1336.39 59.752 1336.81 59.752C1337.26 59.752 1337.65 59.5943 1337.97 59.279C1338.28 58.9637 1338.49 58.4943 1338.6 57.871L1339.6 57.926C1339.46 58.784 1339.15 59.4587 1338.66 59.95C1338.17 60.434 1337.55 60.676 1336.81 60.676ZM1342.91 60.5V53.614H1340.52V52.69H1346.24V53.614H1343.86V60.5H1342.91ZM1350.1 60.676C1349.55 60.676 1349.06 60.5623 1348.64 60.335C1348.21 60.1077 1347.87 59.796 1347.61 59.4C1347.36 58.9967 1347.21 58.531 1347.16 58.003L1348.15 57.937C1348.21 58.3257 1348.32 58.6557 1348.48 58.927C1348.66 59.1983 1348.88 59.4037 1349.15 59.543C1349.43 59.6823 1349.76 59.752 1350.12 59.752C1350.49 59.752 1350.8 59.708 1351.05 59.62C1351.3 59.5247 1351.48 59.389 1351.61 59.213C1351.74 59.0297 1351.81 58.8133 1351.81 58.564C1351.81 58.3147 1351.75 58.0983 1351.63 57.915C1351.52 57.7243 1351.31 57.5483 1350.99 57.387C1350.68 57.2257 1350.23 57.0607 1349.62 56.892C1349.07 56.738 1348.63 56.5693 1348.3 56.386C1347.97 56.2027 1347.72 55.979 1347.57 55.715C1347.42 55.451 1347.35 55.1247 1347.35 54.736C1347.35 54.296 1347.45 53.911 1347.66 53.581C1347.87 53.2437 1348.17 52.9833 1348.56 52.8C1348.95 52.6093 1349.41 52.514 1349.95 52.514C1350.48 52.514 1350.94 52.624 1351.32 52.844C1351.7 53.0567 1352 53.35 1352.22 53.724C1352.45 54.098 1352.59 54.5233 1352.65 55L1351.66 55.066C1351.62 54.7507 1351.53 54.472 1351.39 54.23C1351.25 53.9807 1351.06 53.7863 1350.82 53.647C1350.57 53.5077 1350.28 53.438 1349.92 53.438C1349.44 53.438 1349.06 53.5553 1348.77 53.79C1348.48 54.0173 1348.34 54.318 1348.34 54.692C1348.34 54.934 1348.39 55.1357 1348.49 55.297C1348.6 55.451 1348.8 55.5903 1349.07 55.715C1349.34 55.8323 1349.72 55.9607 1350.21 56.1C1350.85 56.276 1351.35 56.474 1351.73 56.694C1352.11 56.914 1352.38 57.178 1352.54 57.486C1352.71 57.7867 1352.8 58.1533 1352.8 58.586C1352.8 58.9967 1352.68 59.3597 1352.45 59.675C1352.23 59.9903 1351.91 60.236 1351.51 60.412C1351.11 60.588 1350.64 60.676 1350.1 60.676ZM1355.26 61.71V60.94H1357.02V53.02H1355.26V52.25H1357.9V61.71H1355.26Z" fill="#8E9498"/>
</svg>
